<?xml version="1.0" encoding="UTF-8"?>
<svg width="48" height="48" viewBox="0 0 48 48" xmlns="http://www.w3.org/2000/svg">
  <!-- Fond avec bordure subtile -->
  <rect width="48" height="48" rx="8" fill="#FFFFFF" stroke="#E5E7EB" stroke-width="0.5"/>

  <!-- Calendrier principal -->
  <g transform="translate(8, 8)">
    <!-- Corps du calendrier -->
    <rect width="32" height="24" rx="3" fill="#4A90E2"/>

    <!-- En-tête du calendrier -->
    <rect width="32" height="6" rx="3" fill="#3B82F6"/>

    <!-- Lignes de séparation -->
    <line x1="3" y1="8" x2="29" y2="8" stroke="#FFFFFF" stroke-width="1"/>
    <line x1="3" y1="12" x2="29" y2="12" stroke="#FFFFFF" stroke-width="0.8" opacity="0.7"/>
    <line x1="3" y1="16" x2="29" y2="16" stroke="#FFFFFF" stroke-width="0.8" opacity="0.7"/>
    <line x1="3" y1="20" x2="29" y2="20" stroke="#FFFFFF" stroke-width="0.8" opacity="0.7"/>

    <!-- Colonnes verticales légères -->
    <line x1="8" y1="8" x2="8" y2="24" stroke="#FFFFFF" stroke-width="0.5" opacity="0.3"/>
    <line x1="13" y1="8" x2="13" y2="24" stroke="#FFFFFF" stroke-width="0.5" opacity="0.3"/>
    <line x1="18" y1="8" x2="18" y2="24" stroke="#FFFFFF" stroke-width="0.5" opacity="0.3"/>
    <line x1="23" y1="8" x2="23" y2="24" stroke="#FFFFFF" stroke-width="0.5" opacity="0.3"/>

    <!-- Rendez-vous colorés -->
    <circle cx="6" cy="10" r="1.5" fill="#FFFFFF"/>
    <circle cx="11" cy="14" r="1.5" fill="#10B981"/>
    <circle cx="20" cy="10" r="1.5" fill="#F59E0B"/>
    <circle cx="26" cy="18" r="1.5" fill="#EF4444"/>
    <circle cx="16" cy="22" r="1.5" fill="#8B5CF6"/>

    <!-- Anneaux pour dates importantes -->
    <circle cx="6" cy="18" r="2" fill="none" stroke="#FFFFFF" stroke-width="0.8"/>
    <circle cx="26" cy="14" r="2" fill="none" stroke="#10B981" stroke-width="0.8"/>
  </g>
</svg>
